<svg width="1282" height="1204" viewBox="0 0 1282 1204" fill="none" xmlns="http://www.w3.org/2000/svg">
<path d="M179.4 1117V1015.6C179.4 1011 179.2 1007.3 178.8 1004.5C178.6 1001.7 178 999.5 177 997.9C176.2 996.3 174.9 995.2 173.1 994.6C171.5 994 169.4 993.7 166.8 993.7C163 993.7 158.7 994.9 153.9 997.3C149.1 999.5 144.5 1002.6 140.1 1006.6V1117H102V1017.1C102 1007.5 101.1 1001.2 99.3 998.2C97.5 995 93.8 993.4 88.2 993.4C84.4 993.4 80.1 994.4 75.3 996.4C70.7 998.2 66.2 1001.1 61.8 1005.1V1117H22.5V1009.9C22.5 998.7 22.1 990.3 21.3 984.7C20.5 979.1 19 974.4 16.8 970.6L53.1 960.7C54.5 962.9 55.5 965.1 56.1 967.3C56.9 969.3 57.7 972.3 58.5 976.3C69.3 965.9 81.8 960.7 96 960.7C108.6 960.7 119 964.9 127.2 973.3C129.2 975.3 131.2 977.8 133.2 980.8C140.2 973.6 147.1 968.5 153.9 965.5C160.7 962.3 168.3 960.7 176.7 960.7C182.7 960.7 188.4 961.6 193.8 963.4C199.2 965 203.6 967.3 207 970.3C209.2 972.1 211 974.1 212.4 976.3C213.8 978.5 214.9 981.1 215.7 984.1C216.7 986.9 217.4 990.3 217.8 994.3C218.2 998.1 218.4 1002.6 218.4 1007.8V1117H179.4ZM297.82 1052.8V1054C297.82 1066 300.62 1075.2 306.22 1081.6C311.82 1088 319.82 1091.2 330.22 1091.2C343.82 1091.2 356.82 1086.1 369.22 1075.9L384.82 1099.9C367.42 1114.1 348.12 1121.2 326.92 1121.2C315.92 1121.2 305.92 1119.3 296.92 1115.5C287.92 1111.7 280.22 1106.4 273.82 1099.6C267.62 1092.6 262.82 1084.2 259.42 1074.4C256.02 1064.6 254.32 1053.7 254.32 1041.7C254.32 1027.9 255.82 1016.2 258.82 1006.6C261.82 997 266.72 988.4 273.52 980.8C279.92 973.8 287.02 968.6 294.82 965.2C302.62 961.8 311.62 960.1 321.82 960.1C330.82 960.1 339.22 961.5 347.02 964.3C354.82 967.1 361.22 971.1 366.22 976.3C373.22 983.5 378.32 992.5 381.52 1003.3C384.92 1013.9 386.62 1027.3 386.62 1043.5V1052.8H297.82ZM344.92 1021.6C344.92 1015.8 344.52 1011.2 343.72 1007.8C343.12 1004.4 341.92 1001.3 340.12 998.5C336.12 992.5 330.22 989.5 322.42 989.5C314.82 989.5 308.92 992.4 304.72 998.2C300.52 1003.8 298.42 1012 298.42 1022.8V1023.4H344.92V1021.6ZM570.108 980.2C565.708 984.2 561.308 987.1 556.908 988.9C552.508 990.7 547.508 991.6 541.908 991.6C539.908 991.6 537.908 991.5 535.908 991.3C534.108 991.1 532.608 990.9 531.408 990.7C534.408 994.3 536.608 998.1 538.008 1002.1C539.608 1006.1 540.408 1010.7 540.408 1015.9C540.408 1022.5 539.008 1028.6 536.208 1034.2C533.408 1039.8 529.408 1044.6 524.208 1048.6C519.208 1052.6 513.208 1055.8 506.208 1058.2C499.408 1060.4 491.908 1061.5 483.708 1061.5H481.008C480.408 1061.5 479.308 1061.4 477.708 1061.2C472.508 1063.6 468.508 1065.8 465.708 1067.8C463.108 1069.6 461.808 1071.6 461.808 1073.8C461.808 1076.2 464.008 1077.4 468.408 1077.4L490.008 1077.7C501.608 1077.9 510.908 1079 517.908 1081C524.908 1083 531.108 1086.5 536.508 1091.5C545.308 1099.7 549.708 1110.6 549.708 1124.2C549.708 1136.6 545.608 1147.2 537.408 1156C530.608 1163.2 521.808 1168.3 511.008 1171.3C500.208 1174.3 488.808 1175.8 476.808 1175.8C465.808 1175.8 455.108 1174.6 444.708 1172.2C434.308 1170 425.608 1165.7 418.608 1159.3C410.208 1151.5 406.008 1142.4 406.008 1132C406.008 1127.8 406.408 1124.5 407.208 1122.1C408.008 1119.9 408.808 1118 409.608 1116.4H446.808C446.008 1118.2 445.508 1119.7 445.308 1120.9C445.108 1122.3 445.008 1124.1 445.008 1126.3C445.008 1132.5 447.408 1137.2 452.208 1140.4C457.208 1143.6 464.408 1145.2 473.808 1145.2C479.008 1145.2 483.708 1144.8 487.908 1144C492.108 1143.4 495.808 1142.1 499.008 1140.1C502.008 1138.3 504.408 1136 506.208 1133.2C508.008 1130.6 508.908 1127.7 508.908 1124.5C508.908 1117.5 506.208 1112.8 500.808 1110.4C495.408 1107.8 488.708 1106.4 480.708 1106.2L463.608 1105.9C446.008 1105.7 433.708 1104.1 426.708 1101.1C423.108 1099.7 420.208 1097.3 418.008 1093.9C416.008 1090.5 415.008 1086.2 415.008 1081C415.008 1078.6 415.308 1076.2 415.908 1073.8C416.508 1071.4 417.708 1069.1 419.508 1066.9C421.508 1064.7 424.308 1062.6 427.908 1060.6C431.708 1058.6 436.808 1056.8 443.208 1055.2C421.208 1049.6 410.208 1035.4 410.208 1012.6C410.208 1004.8 411.708 997.7 414.708 991.3C417.908 984.9 422.308 979.5 427.908 975.1C433.508 970.5 440.308 967 448.308 964.6C456.308 962 465.208 960.7 475.008 960.7C479.408 960.7 483.708 961 487.908 961.6C492.108 962.2 497.008 963.2 502.608 964.6C506.808 965.6 510.308 966.4 513.108 967C516.108 967.6 518.908 967.9 521.508 967.9C527.108 967.9 532.608 966.8 538.008 964.6C543.608 962.2 548.708 958.9 553.308 954.7L570.108 980.2ZM499.008 1012.9C499.008 1005.7 496.808 1000.1 492.408 996.1C488.208 992.1 482.308 990.1 474.708 990.1C467.108 990.1 461.208 992.1 457.008 996.1C452.808 1000.1 450.708 1005.7 450.708 1012.9C450.708 1020.7 452.908 1026.3 457.308 1029.7C461.708 1033.1 467.408 1034.8 474.408 1034.8C490.808 1034.8 499.008 1027.5 499.008 1012.9ZM688.221 1124.8C683.621 1122.8 679.321 1120.2 675.321 1117C671.521 1113.8 668.621 1110.2 666.621 1106.2C665.021 1107.8 663.421 1109.3 661.821 1110.7C660.421 1112.1 658.921 1113.3 657.321 1114.3C649.521 1119.9 639.221 1122.7 626.421 1122.7C609.221 1122.7 596.121 1118.6 587.121 1110.4C578.121 1102 573.621 1090.1 573.621 1074.7C573.621 1056.5 579.721 1043.2 591.921 1034.8C604.321 1026.2 622.821 1021.9 647.421 1021.9H651.921C653.321 1021.9 654.821 1022 656.421 1022.2V1015.9C656.421 1007.3 655.221 1001.4 652.821 998.2C650.621 994.8 645.821 993.1 638.421 993.1C632.021 993.1 625.121 994.6 617.721 997.6C610.321 1000.6 602.421 1004.9 594.021 1010.5L576.921 981.7C580.921 979.1 584.721 976.9 588.321 975.1C591.921 973.3 596.421 971.3 601.821 969.1C609.421 965.9 616.521 963.6 623.121 962.2C629.921 960.8 636.821 960.1 643.821 960.1C656.821 960.1 667.521 962.4 675.921 967C684.521 971.6 690.321 978.2 693.321 986.8C693.921 988.4 694.321 990 694.521 991.6C694.921 993 695.221 994.7 695.421 996.7C695.821 998.7 696.021 1001.1 696.021 1003.9V1014.4L695.121 1066C695.121 1070.2 695.221 1073.9 695.421 1077.1C695.621 1080.1 696.221 1082.9 697.221 1085.5C698.221 1088.1 699.621 1090.6 701.421 1093C703.421 1095.2 706.121 1097.6 709.521 1100.2L688.221 1124.8ZM654.021 1049.8C640.021 1049.8 630.221 1051.4 624.621 1054.6C619.221 1057.8 616.521 1064 616.521 1073.2C616.521 1079.2 618.121 1084.1 621.321 1087.9C624.721 1091.5 629.021 1093.3 634.221 1093.3C638.021 1093.3 641.721 1092.4 645.321 1090.6C648.921 1088.8 652.221 1086.2 655.221 1082.8L655.821 1049.8H654.021ZM936.642 1102C936.642 1112.4 934.042 1121.9 928.842 1130.5C923.642 1139.1 916.342 1146.5 906.942 1152.7C897.742 1158.9 886.642 1163.7 873.642 1167.1C860.842 1170.5 846.642 1172.2 831.042 1172.2C826.442 1172.2 822.542 1172.1 819.342 1171.9C816.142 1171.9 811.742 1171.5 806.142 1170.7L796.542 1142.8C801.142 1143.8 804.842 1144.4 807.642 1144.6C810.642 1144.8 814.542 1144.9 819.342 1144.9C829.742 1144.9 839.242 1143.7 847.842 1141.3C856.442 1139.1 863.842 1136 870.042 1132C876.242 1128 881.042 1123.1 884.442 1117.3C887.842 1111.7 889.542 1105.5 889.542 1098.7C889.542 1093.7 888.342 1089.1 885.942 1084.9C883.742 1080.7 880.542 1077.7 876.342 1075.9C870.542 1073.5 861.242 1072.3 848.442 1072.3H840.942C837.942 1072.3 835.342 1072.4 833.142 1072.6V1039C836.742 1039.4 840.242 1039.7 843.642 1039.9C847.042 1040.1 850.442 1040.2 853.842 1040.2C876.042 1040.2 887.142 1032.3 887.142 1016.5C887.142 1010.1 885.042 1004.8 880.842 1000.6C876.842 996.2 870.442 994 861.642 994C851.442 994 842.642 995.9 835.242 999.7C827.842 1003.3 821.842 1007 817.242 1010.8L796.242 985.3C800.242 982.1 804.642 979.1 809.442 976.3C814.442 973.5 819.342 971.1 824.142 969.1C831.142 966.3 838.242 964.1 845.442 962.5C852.642 960.9 859.842 960.1 867.042 960.1C876.442 960.1 885.042 961.4 892.842 964C900.842 966.6 907.742 970.3 913.542 975.1C919.342 979.7 923.842 985.2 927.042 991.6C930.242 998 931.842 1004.9 931.842 1012.3C931.842 1020.5 930.142 1028 926.742 1034.8C923.342 1041.6 918.442 1047 912.042 1051C910.042 1052.2 908.342 1053.2 906.942 1054C905.742 1054.6 903.742 1055.4 900.942 1056.4C912.342 1060.2 921.142 1066.1 927.342 1074.1C933.542 1082.1 936.642 1091.4 936.642 1102ZM1110.6 1052.8C1110.6 1062.4 1108.8 1071.4 1105.2 1079.8C1101.6 1088.2 1096.6 1095.5 1090.2 1101.7C1084 1107.7 1076.6 1112.5 1068 1116.1C1059.4 1119.5 1050.2 1121.2 1040.4 1121.2C1029.4 1121.2 1019.3 1119.1 1010.1 1114.9C1000.9 1110.7 992.898 1104.9 986.098 1097.5C979.498 1089.9 974.298 1081 970.498 1070.8C966.898 1060.4 965.098 1049 965.098 1036.6C965.098 1029.2 965.698 1021.8 966.898 1014.4C968.298 1006.8 970.298 999.8 972.898 993.4C976.298 984.8 980.798 976.3 986.398 967.9C992.198 959.5 998.898 951.8 1006.5 944.8C1010.9 940.6 1016.2 936.3 1022.4 931.9C1028.8 927.5 1035.4 923.4 1042.2 919.6C1049.2 915.6 1056.3 912 1063.5 908.8C1070.7 905.6 1077.4 903.1 1083.6 901.3L1092.3 930.1C1084.7 932.5 1077 935.5 1069.2 939.1C1061.4 942.7 1054 947.2 1047 952.6C1040.2 958 1033.9 964.6 1028.1 972.4C1022.5 980 1017.9 989 1014.3 999.4C1022.3 992.8 1033 989.5 1046.4 989.5C1055.4 989.5 1063.8 991.1 1071.6 994.3C1079.6 997.5 1086.4 1002 1092 1007.8C1097.8 1013.4 1102.3 1020.1 1105.5 1027.9C1108.9 1035.5 1110.6 1043.8 1110.6 1052.8ZM1068.3 1053.4C1068.3 1043.8 1065.8 1036.2 1060.8 1030.6C1056 1024.8 1049.4 1021.9 1041 1021.9C1036.2 1021.9 1031.3 1022.7 1026.3 1024.3C1021.3 1025.9 1015.8 1028.4 1009.8 1031.8C1009.4 1033.6 1009.1 1036.2 1008.9 1039.6C1008.9 1043 1008.9 1046.4 1008.9 1049.8C1008.9 1062.6 1011.5 1072.6 1016.7 1079.8C1021.9 1086.8 1029.2 1090.3 1038.6 1090.3C1047.6 1090.3 1054.8 1087 1060.2 1080.4C1065.6 1073.8 1068.3 1064.8 1068.3 1053.4ZM1265.09 1096C1265.09 1107.2 1262.69 1117.4 1257.89 1126.6C1253.29 1136 1246.79 1144 1238.39 1150.6C1230.19 1157.4 1220.29 1162.7 1208.69 1166.5C1197.09 1170.3 1184.39 1172.2 1170.59 1172.2C1165.79 1172.2 1161.99 1172.1 1159.19 1171.9C1156.39 1171.7 1152.59 1171.1 1147.79 1170.1L1139.09 1140.4C1144.89 1142 1149.89 1143.1 1154.09 1143.7C1158.49 1144.3 1162.89 1144.6 1167.29 1144.6C1175.29 1144.6 1182.59 1143.5 1189.19 1141.3C1195.79 1139.3 1201.49 1136.3 1206.29 1132.3C1211.09 1128.5 1214.79 1123.9 1217.39 1118.5C1220.19 1113.1 1221.59 1107.2 1221.59 1100.8C1221.59 1091.2 1218.59 1083.5 1212.59 1077.7C1206.59 1071.9 1198.69 1069 1188.89 1069C1182.69 1069 1176.19 1069.7 1169.39 1071.1C1162.79 1072.3 1154.69 1074.4 1145.09 1077.4L1154.69 963.4H1256.99L1250.99 997.6H1192.19L1187.99 1039.3C1191.19 1038.7 1193.59 1038.3 1195.19 1038.1C1196.99 1037.9 1199.29 1037.8 1202.09 1037.8C1211.29 1037.8 1219.79 1039.3 1227.59 1042.3C1235.39 1045.1 1241.99 1049.1 1247.39 1054.3C1252.99 1059.3 1257.29 1065.4 1260.29 1072.6C1263.49 1079.6 1265.09 1087.4 1265.09 1096Z" fill="#006EB6"/>
<path d="M273.057 231.479C273.057 231.479 156.397 484.448 336.024 638.383C515.643 792.318 711.789 723.03 711.789 723.03C711.789 723.03 514.124 819.596 319.439 655.606C124.745 491.616 273.057 231.479 273.057 231.479Z" fill="#FEDD00"/>
<path d="M926.534 434.934C932.939 258.436 795.052 110.154 618.545 103.748C442.039 97.3426 293.765 235.239 287.36 411.737C284.725 484.334 306.788 551.948 345.623 607.086C295.664 546.035 266.616 467.467 269.702 382.439C276.432 197 432.215 52.1276 617.655 58.8574C803.094 65.5873 947.966 221.371 941.236 406.81C938.934 470.239 918.881 528.699 886.471 578.193C910.149 535.555 924.644 487.006 926.534 434.934Z" fill="#006EB6"/>
<path d="M966.483 223.672C966.483 223.672 795.597 209.327 562.819 335.479C329.436 461.95 345.213 502.023 354.219 524.609C363.224 547.195 386.064 542.686 386.064 542.686C386.064 542.686 344.414 550.447 331.356 519.94C317.451 487.456 305.059 431.661 595.514 289.713C806.796 186.461 966.483 223.672 966.483 223.672Z" fill="#FEDD00"/>
<path d="M831.709 667.152C757.388 656.965 689.966 616.2 635.378 564.718C580.79 513.236 537.504 451.155 494.626 389.57C529.377 461.234 572.666 529.659 630.008 584.902C687.351 640.145 759.628 681.724 838.279 693.967C857.831 697.012 878.426 698.14 896.859 690.947C935.193 675.997 956.994 612.952 940.127 574.81C939.477 609.845 936.606 627.742 919.615 645.901C897.655 669.387 861.538 671.244 831.709 667.152Z" fill="#FEDD00"/>
<path d="M428.16 509.144C427.92 561.905 434.031 615.719 456.01 663.69C477.989 711.661 517.586 753.368 568.056 768.78C637.669 790.035 711.396 759.219 777.613 729.021C741.936 759.598 703.794 788.49 659.904 805.28C616.014 822.071 565.338 825.635 522.661 805.98C458.596 776.475 426.917 703.168 414.792 633.689C391.398 499.623 418.333 344.713 485.738 226.059C461.358 297.113 456.957 310.985 447.385 350.822C434.925 402.625 428.397 455.863 428.16 509.144Z" fill="#006EB6"/>
<path d="M596.319 68.2657C625.495 46.0307 660.09 28.6908 696.583 28.8812C733.087 29.0796 771.091 50.4286 782.844 85.6242C776.286 54.9562 755.851 27.6261 728.542 12.9986C701.233 -1.62881 666.771 -5.05363 639.063 8.63862C552.997 51.1684 523.056 89.0406 472.516 255.185C492.589 200.686 505.501 176.881 516.152 158.853C536.86 123.821 564.149 92.7786 596.319 68.2657Z" fill="#006EB6"/>
<path d="M457.297 215.477C457.297 215.477 821.598 295.505 964.21 460.127C1056.64 566.824 927.939 552.494 927.939 552.494C927.939 552.494 1030.35 573.399 1038.11 512.774C1045.87 452.148 810.274 272.274 457.297 215.477Z" fill="#006EB6"/>
<path d="M445.355 220.107C445.355 244.955 465.498 265.107 490.355 265.107C515.203 265.107 535.355 244.955 535.355 220.107C535.355 195.26 515.213 175.107 490.355 175.107C465.498 175.107 445.355 195.25 445.355 220.107Z" fill="#006EB6"/>
<path d="M628.105 273.973C628.105 293.302 643.776 308.973 663.105 308.973C682.435 308.973 698.105 293.302 698.105 273.973C698.105 254.644 682.435 238.973 663.105 238.973C643.776 238.973 628.105 254.644 628.105 273.973Z" fill="#FEDD00"/>
<path d="M404.062 348.599C404.062 348.599 297.719 204.541 302.963 129.558C308.208 54.5754 370.778 46.9263 422.933 88.2655C422.933 88.2655 336.759 12.7461 294.889 62.7636C253.019 112.781 294.375 209.78 404.062 348.599Z" fill="#FEDD00"/>
<path d="M297.029 171.321C277.022 171.321 260.804 155.103 260.804 135.096C260.804 115.09 277.022 98.8711 297.029 98.8711C317.035 98.8711 333.254 115.09 333.254 135.096C333.254 155.103 317.035 171.321 297.029 171.321Z" fill="#FEDD00"/>
<path d="M889.325 408.146C889.325 432.377 908.967 452.018 933.198 452.018C957.429 452.018 977.07 432.377 977.07 408.146C977.07 383.915 957.429 364.273 933.198 364.273C908.967 364.273 889.325 383.915 889.325 408.146Z" fill="#006EB6"/>
<path d="M295.471 412.461C315.75 406.678 327.501 385.551 321.718 365.273C315.935 344.994 294.808 333.243 274.538 339.026C254.26 344.81 242.509 365.936 248.292 386.206C254.075 406.484 275.193 418.235 295.471 412.461Z" fill="#006EB6"/>
<path d="M813.872 719.261C789.326 717.836 770.582 696.782 772.006 672.236C773.431 647.689 794.484 628.945 819.031 630.37C843.578 631.794 862.322 652.848 860.897 677.395C859.473 701.941 838.419 720.685 813.872 719.261Z" fill="#FEDD00"/>
<path d="M310.059 664.676C310.059 689.526 330.208 709.676 355.059 709.676C379.909 709.676 400.059 689.526 400.059 664.676C400.059 639.825 379.909 619.676 355.059 619.676C330.208 619.676 310.059 639.818 310.059 664.676Z" fill="#FEDD00"/>
</svg>
